<?xml version="1.0" encoding="utf-8"?>
<!DOCTYPE svg PUBLIC "-//W3C//DTD SVG 1.1//EN" "http://www.w3.org/Graphics/SVG/1.1/DTD/svg11.dtd">
<svg style="width:308px;height:308px;" version="1.1" id="图形" xmlns="http://www.w3.org/2000/svg" xmlns:xlink="http://www.w3.org/1999/xlink" x="0px" y="0px" width="1024px" height="1024px" viewBox="0 0 1024 1024" enable-background="new 0 0 1024 1024" xml:space="preserve">
  <path class="svgpath" data-index="path_0" fill="#33475f" d="M877.095385 165.809231l-29.144615-29.144615L818.806154 107.52C751.458462 38.990769 711.325538 0 669.538462 0L354.461538 0C267.421538 0 196.923077 70.498462 196.923077 157.538462l0 275.692308L78.769231 433.230769c-21.661538 0-39.384615 17.723077-39.384615 39.384615l0 236.307692c0 21.661538 17.723077 39.384615 39.384615 39.384615l118.153846 0 0 118.153846c0 87.04 70.498462 157.538462 157.538462 157.538462l472.615385 0c87.04 0 157.538462-70.498462 157.538462-157.538462L984.615385 315.076923C984.615385 273.329231 945.624615 233.156923 877.095385 165.809231zM905.846154 866.461538c0 43.323077-35.446154 78.769231-78.769231 78.769231L354.461538 945.230769c-43.323077 0-78.769231-35.446154-78.769231-78.769231l0-118.153846 393.846154 0c21.661538 0 39.384615-17.723077 39.384615-39.384615l0-236.307692c0-21.661538-17.723077-39.384615-39.384615-39.384615L275.692308 433.230769 275.692308 157.538462c0-43.323077 35.446154-78.769231 78.769231-78.769231l287.113846 0C669.932308 85.858462 669.538462 120.910769 669.538462 155.569231L669.538462 275.692308c0 21.661538 17.723077 39.384615 39.384615 39.384615l118.153846 0c39.384615 0 78.769231 0 78.769231 39.384615L905.846154 866.461538z" />

</svg>
